<mxfile host="app.diagrams.net" agent="Mozilla/5.0 (Windows NT 10.0; Win64; x64; rv:132.0) Gecko/20100101 Firefox/132.0" version="24.8.8">
  <diagram name="Page-1" id="Y3_Gs5tHwmnxRuHlMRJw">
    <mxGraphModel dx="1730" dy="1113" grid="1" gridSize="10" guides="1" tooltips="1" connect="1" arrows="1" fold="1" page="1" pageScale="1" pageWidth="827" pageHeight="1169" math="0" shadow="0">
      <root>
        <mxCell id="0" />
        <mxCell id="1" parent="0" />
        <mxCell id="VUTFpPl6jqV6nlHxaVOp-1" value="Alarm" style="rounded=0;whiteSpace=wrap;html=1;" parent="1" vertex="1">
          <mxGeometry x="170" y="980" width="190" height="30" as="geometry" />
        </mxCell>
        <mxCell id="VUTFpPl6jqV6nlHxaVOp-2" value="&lt;div&gt;&lt;span style=&quot;white-space: pre;&quot;&gt;&#x9;&lt;/span&gt;ID&lt;/div&gt;&lt;div&gt;&lt;span style=&quot;white-space: pre;&quot;&gt;&#x9;&lt;/span&gt;Date&lt;br&gt;&lt;/div&gt;" style="rounded=0;whiteSpace=wrap;html=1;align=left;" parent="1" vertex="1">
          <mxGeometry x="170" y="1010" width="190" height="80" as="geometry" />
        </mxCell>
        <mxCell id="VUTFpPl6jqV6nlHxaVOp-3" value="IsLinkedTo ^ " style="shape=hexagon;perimeter=hexagonPerimeter2;whiteSpace=wrap;html=1;fixedSize=1;" parent="1" vertex="1">
          <mxGeometry x="200" y="860" width="120" height="40" as="geometry" />
        </mxCell>
        <mxCell id="VUTFpPl6jqV6nlHxaVOp-4" value="" style="endArrow=none;html=1;rounded=0;entryX=0.464;entryY=0.997;entryDx=0;entryDy=0;exitX=0.5;exitY=0;exitDx=0;exitDy=0;entryPerimeter=0;" parent="1" source="VUTFpPl6jqV6nlHxaVOp-3" edge="1">
          <mxGeometry width="50" height="50" relative="1" as="geometry">
            <mxPoint x="343" y="910" as="sourcePoint" />
            <mxPoint x="262.0239999999999" y="789.88" as="targetPoint" />
          </mxGeometry>
        </mxCell>
        <mxCell id="VUTFpPl6jqV6nlHxaVOp-5" value="" style="endArrow=none;html=1;rounded=0;entryX=0.464;entryY=0.997;entryDx=0;entryDy=0;exitX=0.475;exitY=0.054;exitDx=0;exitDy=0;entryPerimeter=0;exitPerimeter=0;" parent="1" source="VUTFpPl6jqV6nlHxaVOp-1" edge="1">
          <mxGeometry width="50" height="50" relative="1" as="geometry">
            <mxPoint x="264" y="971" as="sourcePoint" />
            <mxPoint x="262" y="900" as="targetPoint" />
          </mxGeometry>
        </mxCell>
        <mxCell id="VUTFpPl6jqV6nlHxaVOp-6" value="NormGroup" style="rounded=0;whiteSpace=wrap;html=1;" parent="1" vertex="1">
          <mxGeometry x="672" y="1130" width="177" height="30" as="geometry" />
        </mxCell>
        <mxCell id="VUTFpPl6jqV6nlHxaVOp-7" value="&lt;div&gt;&lt;span style=&quot;white-space: pre;&quot;&gt;&#x9;&lt;/span&gt;ID&lt;/div&gt;&lt;div&gt;&lt;span style=&quot;white-space: pre;&quot;&gt;&#x9;&lt;/span&gt;Nom&lt;br&gt;&lt;/div&gt;&lt;div&gt;&lt;div&gt;&lt;span style=&quot;white-space: pre;&quot;&gt;&#x9;&lt;/span&gt;Severity&lt;/div&gt;&lt;span style=&quot;white-space: pre;&quot;&gt;&#x9;&lt;/span&gt;Priority&lt;/div&gt;" style="rounded=0;whiteSpace=wrap;html=1;align=left;" parent="1" vertex="1">
          <mxGeometry x="672" y="1160" width="177" height="80" as="geometry" />
        </mxCell>
        <mxCell id="VUTFpPl6jqV6nlHxaVOp-8" value="Is triggered by &amp;gt;" style="shape=hexagon;perimeter=hexagonPerimeter2;whiteSpace=wrap;html=1;fixedSize=1;" parent="1" vertex="1">
          <mxGeometry x="398" y="1173" width="120" height="40" as="geometry" />
        </mxCell>
        <mxCell id="VUTFpPl6jqV6nlHxaVOp-9" value="" style="endArrow=none;html=1;rounded=0;exitX=0.475;exitY=0.983;exitDx=0;exitDy=0;entryX=0;entryY=0.5;entryDx=0;entryDy=0;exitPerimeter=0;" parent="1" source="VUTFpPl6jqV6nlHxaVOp-2" target="VUTFpPl6jqV6nlHxaVOp-8" edge="1">
          <mxGeometry width="50" height="50" relative="1" as="geometry">
            <mxPoint x="563" y="970" as="sourcePoint" />
            <mxPoint x="613" y="920" as="targetPoint" />
            <Array as="points">
              <mxPoint x="260" y="1190" />
            </Array>
          </mxGeometry>
        </mxCell>
        <mxCell id="VUTFpPl6jqV6nlHxaVOp-10" value="" style="endArrow=none;html=1;rounded=0;entryX=-0.002;entryY=0.417;entryDx=0;entryDy=0;entryPerimeter=0;" parent="1" source="VUTFpPl6jqV6nlHxaVOp-8" target="VUTFpPl6jqV6nlHxaVOp-7" edge="1">
          <mxGeometry width="50" height="50" relative="1" as="geometry">
            <mxPoint x="580" y="1193" as="sourcePoint" />
            <mxPoint x="701" y="1192.83" as="targetPoint" />
          </mxGeometry>
        </mxCell>
        <mxCell id="VUTFpPl6jqV6nlHxaVOp-11" value="Machine" style="rounded=0;whiteSpace=wrap;html=1;" parent="1" vertex="1">
          <mxGeometry x="90" y="1850" width="320" height="30" as="geometry" />
        </mxCell>
        <mxCell id="VUTFpPl6jqV6nlHxaVOp-12" value="&lt;blockquote&gt;&lt;div align=&quot;left&quot;&gt;ID&lt;/div&gt;&lt;div align=&quot;left&quot;&gt;MachineName&lt;/div&gt;&lt;div align=&quot;left&quot;&gt;DomainName&lt;/div&gt;&lt;div align=&quot;left&quot;&gt;UpTime&lt;/div&gt;&lt;div align=&quot;left&quot;&gt;DirectX&lt;/div&gt;&lt;div align=&quot;left&quot;&gt;LastSeen&lt;br&gt;&lt;/div&gt;&lt;div align=&quot;left&quot;&gt;Ram&lt;/div&gt;&lt;div align=&quot;left&quot;&gt;&lt;span style=&quot;white-space: pre;&quot;&gt;&#x9;&lt;/span&gt;TotalMemory&lt;/div&gt;&lt;div align=&quot;left&quot;&gt;&lt;span style=&quot;white-space: pre;&quot;&gt;&#x9;&lt;/span&gt;UsedMemory&lt;/div&gt;&lt;div align=&quot;left&quot;&gt;&lt;span style=&quot;white-space: pre;&quot;&gt;&#x9;&lt;/span&gt;/FreeMemory&lt;br&gt;&lt;/div&gt;&lt;div align=&quot;left&quot;&gt;Cpu&lt;/div&gt;&lt;div align=&quot;left&quot;&gt;&lt;span style=&quot;white-space: pre;&quot;&gt;&#x9;Model&lt;/span&gt;&lt;/div&gt;&lt;div align=&quot;left&quot;&gt;&lt;span style=&quot;white-space: pre;&quot;&gt;&lt;span style=&quot;white-space: pre;&quot;&gt;&#x9;ClockSpeed&lt;/span&gt;&lt;/span&gt;&lt;/div&gt;&lt;div align=&quot;left&quot;&gt;&lt;span style=&quot;white-space: pre;&quot;&gt;&lt;span style=&quot;white-space: pre;&quot;&gt;&lt;span style=&quot;white-space: pre;&quot;&gt;&#x9;&lt;/span&gt;CoreCount&lt;/span&gt;&lt;/span&gt;&lt;/div&gt;&lt;div align=&quot;left&quot;&gt;&lt;span style=&quot;white-space: pre;&quot;&gt;&lt;span style=&quot;white-space: pre;&quot;&gt;Os&lt;/span&gt;&lt;/span&gt;&lt;/div&gt;&lt;div align=&quot;left&quot;&gt;&lt;span style=&quot;white-space: pre;&quot;&gt;&lt;span style=&quot;white-space: pre;&quot;&gt;&lt;span style=&quot;white-space: pre;&quot;&gt;&#x9;&lt;/span&gt;OsName&lt;/span&gt;&lt;/span&gt;&lt;/div&gt;&lt;div align=&quot;left&quot;&gt;&lt;span style=&quot;white-space: pre;&quot;&gt;&lt;span style=&quot;white-space: pre;&quot;&gt;&lt;span style=&quot;white-space: pre;&quot;&gt;&#x9;&lt;/span&gt;OsVersion&#x9;&lt;/span&gt;&lt;br&gt;&lt;/span&gt;&lt;/div&gt;&lt;/blockquote&gt;&lt;div align=&quot;left&quot;&gt;&lt;br&gt;&lt;/div&gt;&lt;div align=&quot;left&quot;&gt;&lt;br&gt;&lt;/div&gt;" style="rounded=0;whiteSpace=wrap;html=1;align=left;" parent="1" vertex="1">
          <mxGeometry x="90" y="1880" width="320" height="290" as="geometry" />
        </mxCell>
        <mxCell id="VUTFpPl6jqV6nlHxaVOp-13" value="UserInfomartion" style="rounded=0;whiteSpace=wrap;html=1;" parent="1" vertex="1">
          <mxGeometry x="700" y="1850" width="320" height="30" as="geometry" />
        </mxCell>
        <mxCell id="VUTFpPl6jqV6nlHxaVOp-14" value="&lt;span style=&quot;white-space: pre;&quot;&gt;&#x9;&lt;/span&gt;User" style="rounded=0;whiteSpace=wrap;html=1;align=left;" parent="1" vertex="1">
          <mxGeometry x="700" y="1880" width="320" height="50" as="geometry" />
        </mxCell>
        <mxCell id="VUTFpPl6jqV6nlHxaVOp-15" value="" style="endArrow=none;html=1;rounded=0;entryX=0.003;entryY=0.82;entryDx=0;entryDy=0;entryPerimeter=0;" parent="1" source="VUTFpPl6jqV6nlHxaVOp-17" target="VUTFpPl6jqV6nlHxaVOp-14" edge="1">
          <mxGeometry width="50" height="50" relative="1" as="geometry">
            <mxPoint x="410" y="1920" as="sourcePoint" />
            <mxPoint x="510" y="1950" as="targetPoint" />
          </mxGeometry>
        </mxCell>
        <mxCell id="VUTFpPl6jqV6nlHxaVOp-16" value="" style="endArrow=none;html=1;rounded=0;entryX=0;entryY=0.5;entryDx=0;entryDy=0;" parent="1" target="VUTFpPl6jqV6nlHxaVOp-17" edge="1">
          <mxGeometry width="50" height="50" relative="1" as="geometry">
            <mxPoint x="410" y="1920" as="sourcePoint" />
            <mxPoint x="701" y="1921" as="targetPoint" />
          </mxGeometry>
        </mxCell>
        <mxCell id="VUTFpPl6jqV6nlHxaVOp-17" value="As&amp;gt;" style="shape=hexagon;perimeter=hexagonPerimeter2;whiteSpace=wrap;html=1;fixedSize=1;" parent="1" vertex="1">
          <mxGeometry x="490" y="1900" width="120" height="40" as="geometry" />
        </mxCell>
        <mxCell id="VUTFpPl6jqV6nlHxaVOp-18" value="IpAdresse" style="rounded=0;whiteSpace=wrap;html=1;" parent="1" vertex="1">
          <mxGeometry x="700" y="2000" width="320" height="30" as="geometry" />
        </mxCell>
        <mxCell id="VUTFpPl6jqV6nlHxaVOp-19" value="&lt;span style=&quot;white-space: pre;&quot;&gt;&#x9;&lt;/span&gt;IP" style="rounded=0;whiteSpace=wrap;html=1;align=left;" parent="1" vertex="1">
          <mxGeometry x="700" y="2030" width="320" height="50" as="geometry" />
        </mxCell>
        <mxCell id="VUTFpPl6jqV6nlHxaVOp-20" value="" style="endArrow=none;html=1;rounded=0;entryX=0.003;entryY=0.82;entryDx=0;entryDy=0;entryPerimeter=0;" parent="1" source="VUTFpPl6jqV6nlHxaVOp-22" edge="1">
          <mxGeometry width="50" height="50" relative="1" as="geometry">
            <mxPoint x="410" y="2055" as="sourcePoint" />
            <mxPoint x="701" y="2056" as="targetPoint" />
          </mxGeometry>
        </mxCell>
        <mxCell id="VUTFpPl6jqV6nlHxaVOp-21" value="" style="endArrow=none;html=1;rounded=0;entryX=0;entryY=0.5;entryDx=0;entryDy=0;" parent="1" target="VUTFpPl6jqV6nlHxaVOp-22" edge="1">
          <mxGeometry width="50" height="50" relative="1" as="geometry">
            <mxPoint x="410" y="2055" as="sourcePoint" />
            <mxPoint x="701" y="2056" as="targetPoint" />
          </mxGeometry>
        </mxCell>
        <mxCell id="VUTFpPl6jqV6nlHxaVOp-22" value="As&amp;gt;" style="shape=hexagon;perimeter=hexagonPerimeter2;whiteSpace=wrap;html=1;fixedSize=1;" parent="1" vertex="1">
          <mxGeometry x="490" y="2035" width="120" height="40" as="geometry" />
        </mxCell>
        <mxCell id="VUTFpPl6jqV6nlHxaVOp-23" value="Disk" style="rounded=0;whiteSpace=wrap;html=1;" parent="1" vertex="1">
          <mxGeometry x="700" y="2110" width="320" height="30" as="geometry" />
        </mxCell>
        <mxCell id="VUTFpPl6jqV6nlHxaVOp-24" value="&lt;div&gt;&lt;span style=&quot;white-space: pre;&quot;&gt;&#x9;&lt;/span&gt;Name&lt;/div&gt;&lt;div&gt;&lt;span style=&quot;white-space: pre;&quot;&gt;&#x9;&lt;/span&gt;TotalSize&lt;/div&gt;&lt;div&gt;&lt;span style=&quot;white-space: pre;&quot;&gt;&#x9;&lt;/span&gt;/FreeSize&lt;br&gt;&lt;/div&gt;" style="rounded=0;whiteSpace=wrap;html=1;align=left;" parent="1" vertex="1">
          <mxGeometry x="700" y="2140" width="320" height="50" as="geometry" />
        </mxCell>
        <mxCell id="VUTFpPl6jqV6nlHxaVOp-25" value="" style="endArrow=none;html=1;rounded=0;entryX=0.003;entryY=0.82;entryDx=0;entryDy=0;entryPerimeter=0;" parent="1" source="VUTFpPl6jqV6nlHxaVOp-27" edge="1">
          <mxGeometry width="50" height="50" relative="1" as="geometry">
            <mxPoint x="410" y="2165" as="sourcePoint" />
            <mxPoint x="701" y="2166" as="targetPoint" />
          </mxGeometry>
        </mxCell>
        <mxCell id="VUTFpPl6jqV6nlHxaVOp-26" value="" style="endArrow=none;html=1;rounded=0;entryX=0;entryY=0.5;entryDx=0;entryDy=0;" parent="1" target="VUTFpPl6jqV6nlHxaVOp-27" edge="1">
          <mxGeometry width="50" height="50" relative="1" as="geometry">
            <mxPoint x="410" y="2165" as="sourcePoint" />
            <mxPoint x="701" y="2166" as="targetPoint" />
          </mxGeometry>
        </mxCell>
        <mxCell id="VUTFpPl6jqV6nlHxaVOp-27" value="As&amp;gt;" style="shape=hexagon;perimeter=hexagonPerimeter2;whiteSpace=wrap;html=1;fixedSize=1;" parent="1" vertex="1">
          <mxGeometry x="490" y="2145" width="120" height="40" as="geometry" />
        </mxCell>
        <mxCell id="VUTFpPl6jqV6nlHxaVOp-28" value="&lt;font style=&quot;font-size: 72px;&quot;&gt;BACKUP&lt;/font&gt;" style="text;html=1;align=center;verticalAlign=middle;whiteSpace=wrap;rounded=0;" parent="1" vertex="1">
          <mxGeometry x="90" y="1780" width="300" height="30" as="geometry" />
        </mxCell>
        <mxCell id="VUTFpPl6jqV6nlHxaVOp-29" value="0 - N" style="text;html=1;align=center;verticalAlign=middle;resizable=0;points=[];autosize=1;strokeColor=none;fillColor=none;" parent="1" vertex="1">
          <mxGeometry x="255" y="808" width="50" height="30" as="geometry" />
        </mxCell>
        <mxCell id="VUTFpPl6jqV6nlHxaVOp-30" value="1-1" style="text;html=1;align=center;verticalAlign=middle;resizable=0;points=[];autosize=1;strokeColor=none;fillColor=none;" parent="1" vertex="1">
          <mxGeometry x="260" y="918" width="40" height="30" as="geometry" />
        </mxCell>
        <mxCell id="VUTFpPl6jqV6nlHxaVOp-31" value="1-1" style="text;html=1;align=center;verticalAlign=middle;resizable=0;points=[];autosize=1;strokeColor=none;fillColor=none;" parent="1" vertex="1">
          <mxGeometry x="220" y="1090" width="40" height="30" as="geometry" />
        </mxCell>
        <mxCell id="VUTFpPl6jqV6nlHxaVOp-32" value="0-N" style="text;html=1;align=center;verticalAlign=middle;resizable=0;points=[];autosize=1;strokeColor=none;fillColor=none;" parent="1" vertex="1">
          <mxGeometry x="609" y="1170" width="40" height="30" as="geometry" />
        </mxCell>
        <mxCell id="VUTFpPl6jqV6nlHxaVOp-33" value="Machine" style="rounded=0;whiteSpace=wrap;html=1;" parent="1" vertex="1">
          <mxGeometry x="100" y="469" width="320" height="30" as="geometry" />
        </mxCell>
        <mxCell id="VUTFpPl6jqV6nlHxaVOp-34" value="&lt;blockquote&gt;&lt;div align=&quot;left&quot;&gt;ID&lt;/div&gt;&lt;div align=&quot;left&quot;&gt;MachineName&lt;/div&gt;&lt;div align=&quot;left&quot;&gt;DomainName&lt;/div&gt;&lt;div align=&quot;left&quot;&gt;UpTime&lt;/div&gt;&lt;div align=&quot;left&quot;&gt;DirectX&lt;/div&gt;&lt;div align=&quot;left&quot;&gt;LastSeen&lt;br&gt;&lt;/div&gt;&lt;div align=&quot;left&quot;&gt;Ram&lt;/div&gt;&lt;div align=&quot;left&quot;&gt;&lt;span style=&quot;white-space: pre;&quot;&gt;&#x9;&lt;/span&gt;TotalMemory&lt;/div&gt;&lt;div align=&quot;left&quot;&gt;&lt;span style=&quot;white-space: pre;&quot;&gt;&#x9;&lt;/span&gt;UsedMemory&lt;/div&gt;&lt;div align=&quot;left&quot;&gt;&lt;span style=&quot;white-space: pre;&quot;&gt;&#x9;&lt;/span&gt;FreeMemory&lt;br&gt;&lt;/div&gt;&lt;div align=&quot;left&quot;&gt;Cpu&lt;/div&gt;&lt;div align=&quot;left&quot;&gt;&lt;span style=&quot;white-space: pre;&quot;&gt;&#x9;Model&lt;/span&gt;&lt;/div&gt;&lt;div align=&quot;left&quot;&gt;&lt;span style=&quot;white-space: pre;&quot;&gt;&lt;span style=&quot;white-space: pre;&quot;&gt;&#x9;ClockSpeed&lt;/span&gt;&lt;/span&gt;&lt;/div&gt;&lt;div align=&quot;left&quot;&gt;&lt;span style=&quot;white-space: pre;&quot;&gt;&lt;span style=&quot;white-space: pre;&quot;&gt;&lt;span style=&quot;white-space: pre;&quot;&gt;&#x9;&lt;/span&gt;CoreCount&lt;/span&gt;&lt;/span&gt;&lt;/div&gt;&lt;div align=&quot;left&quot;&gt;&lt;span style=&quot;white-space: pre;&quot;&gt;&lt;span style=&quot;white-space: pre;&quot;&gt;Os&lt;/span&gt;&lt;/span&gt;&lt;/div&gt;&lt;div align=&quot;left&quot;&gt;&lt;span style=&quot;white-space: pre;&quot;&gt;&lt;span style=&quot;white-space: pre;&quot;&gt;&lt;span style=&quot;white-space: pre;&quot;&gt;&#x9;&lt;/span&gt;OsName&lt;/span&gt;&lt;/span&gt;&lt;/div&gt;&lt;div align=&quot;left&quot;&gt;&lt;span style=&quot;white-space: pre;&quot;&gt;&lt;span style=&quot;white-space: pre;&quot;&gt;&lt;span style=&quot;white-space: pre;&quot;&gt;&#x9;&lt;/span&gt;OsVersion&#x9;&lt;/span&gt;&lt;br&gt;&lt;/span&gt;&lt;/div&gt;&lt;/blockquote&gt;&lt;div align=&quot;left&quot;&gt;&lt;br&gt;&lt;/div&gt;&lt;div align=&quot;left&quot;&gt;&lt;br&gt;&lt;/div&gt;" style="rounded=0;whiteSpace=wrap;html=1;align=left;" parent="1" vertex="1">
          <mxGeometry x="100" y="499" width="320" height="290" as="geometry" />
        </mxCell>
        <mxCell id="VUTFpPl6jqV6nlHxaVOp-35" value="User" style="rounded=0;whiteSpace=wrap;html=1;" parent="1" vertex="1">
          <mxGeometry x="710" y="497" width="320" height="30" as="geometry" />
        </mxCell>
        <mxCell id="VUTFpPl6jqV6nlHxaVOp-36" value="&lt;span style=&quot;white-space: pre;&quot;&gt;&#x9;&lt;/span&gt;User" style="rounded=0;whiteSpace=wrap;html=1;align=left;" parent="1" vertex="1">
          <mxGeometry x="710" y="527" width="320" height="50" as="geometry" />
        </mxCell>
        <mxCell id="VUTFpPl6jqV6nlHxaVOp-37" value="" style="endArrow=none;html=1;rounded=0;entryX=0;entryY=0.25;entryDx=0;entryDy=0;exitX=1;exitY=0.5;exitDx=0;exitDy=0;" parent="1" source="VUTFpPl6jqV6nlHxaVOp-39" target="VUTFpPl6jqV6nlHxaVOp-36" edge="1">
          <mxGeometry width="50" height="50" relative="1" as="geometry">
            <mxPoint x="420" y="539" as="sourcePoint" />
            <mxPoint x="520" y="569" as="targetPoint" />
          </mxGeometry>
        </mxCell>
        <mxCell id="VUTFpPl6jqV6nlHxaVOp-38" value="" style="endArrow=none;html=1;rounded=0;entryX=0;entryY=0.5;entryDx=0;entryDy=0;" parent="1" target="VUTFpPl6jqV6nlHxaVOp-39" edge="1">
          <mxGeometry width="50" height="50" relative="1" as="geometry">
            <mxPoint x="420" y="539" as="sourcePoint" />
            <mxPoint x="711" y="540" as="targetPoint" />
          </mxGeometry>
        </mxCell>
        <mxCell id="VUTFpPl6jqV6nlHxaVOp-39" value="has &amp;gt;" style="shape=hexagon;perimeter=hexagonPerimeter2;whiteSpace=wrap;html=1;fixedSize=1;" parent="1" vertex="1">
          <mxGeometry x="500" y="519" width="120" height="40" as="geometry" />
        </mxCell>
        <mxCell id="VUTFpPl6jqV6nlHxaVOp-40" value="IpAddress" style="rounded=0;whiteSpace=wrap;html=1;" parent="1" vertex="1">
          <mxGeometry x="710" y="619" width="320" height="30" as="geometry" />
        </mxCell>
        <mxCell id="VUTFpPl6jqV6nlHxaVOp-41" value="&lt;span style=&quot;white-space: pre;&quot;&gt;&#x9;&lt;/span&gt;IP" style="rounded=0;whiteSpace=wrap;html=1;align=left;" parent="1" vertex="1">
          <mxGeometry x="710" y="649" width="320" height="50" as="geometry" />
        </mxCell>
        <mxCell id="VUTFpPl6jqV6nlHxaVOp-42" value="" style="endArrow=none;html=1;rounded=0;entryX=0.003;entryY=0.82;entryDx=0;entryDy=0;entryPerimeter=0;" parent="1" source="VUTFpPl6jqV6nlHxaVOp-44" edge="1">
          <mxGeometry width="50" height="50" relative="1" as="geometry">
            <mxPoint x="420" y="674" as="sourcePoint" />
            <mxPoint x="711" y="675" as="targetPoint" />
          </mxGeometry>
        </mxCell>
        <mxCell id="VUTFpPl6jqV6nlHxaVOp-43" value="" style="endArrow=none;html=1;rounded=0;entryX=0;entryY=0.5;entryDx=0;entryDy=0;" parent="1" target="VUTFpPl6jqV6nlHxaVOp-44" edge="1">
          <mxGeometry width="50" height="50" relative="1" as="geometry">
            <mxPoint x="420" y="674" as="sourcePoint" />
            <mxPoint x="711" y="675" as="targetPoint" />
          </mxGeometry>
        </mxCell>
        <mxCell id="VUTFpPl6jqV6nlHxaVOp-44" value="has &amp;gt;" style="shape=hexagon;perimeter=hexagonPerimeter2;whiteSpace=wrap;html=1;fixedSize=1;" parent="1" vertex="1">
          <mxGeometry x="500" y="654" width="120" height="40" as="geometry" />
        </mxCell>
        <mxCell id="VUTFpPl6jqV6nlHxaVOp-45" value="Disk" style="rounded=0;whiteSpace=wrap;html=1;" parent="1" vertex="1">
          <mxGeometry x="710" y="729" width="320" height="30" as="geometry" />
        </mxCell>
        <mxCell id="VUTFpPl6jqV6nlHxaVOp-46" value="&lt;div&gt;&lt;span style=&quot;white-space: pre;&quot;&gt;&#x9;&lt;/span&gt;Name&lt;/div&gt;&lt;div&gt;&lt;span style=&quot;white-space: pre;&quot;&gt;&#x9;&lt;/span&gt;TotalSize&lt;/div&gt;&lt;div&gt;&lt;span style=&quot;white-space: pre;&quot;&gt;&#x9;&lt;/span&gt;FreeSize&lt;br&gt;&lt;/div&gt;" style="rounded=0;whiteSpace=wrap;html=1;align=left;" parent="1" vertex="1">
          <mxGeometry x="710" y="759" width="320" height="71" as="geometry" />
        </mxCell>
        <mxCell id="VUTFpPl6jqV6nlHxaVOp-47" value="" style="endArrow=none;html=1;rounded=0;entryX=0.003;entryY=0.82;entryDx=0;entryDy=0;entryPerimeter=0;" parent="1" source="VUTFpPl6jqV6nlHxaVOp-49" edge="1">
          <mxGeometry width="50" height="50" relative="1" as="geometry">
            <mxPoint x="420" y="784" as="sourcePoint" />
            <mxPoint x="711" y="785" as="targetPoint" />
          </mxGeometry>
        </mxCell>
        <mxCell id="VUTFpPl6jqV6nlHxaVOp-48" value="" style="endArrow=none;html=1;rounded=0;entryX=0;entryY=0.5;entryDx=0;entryDy=0;" parent="1" target="VUTFpPl6jqV6nlHxaVOp-49" edge="1">
          <mxGeometry width="50" height="50" relative="1" as="geometry">
            <mxPoint x="420" y="784" as="sourcePoint" />
            <mxPoint x="711" y="785" as="targetPoint" />
          </mxGeometry>
        </mxCell>
        <mxCell id="VUTFpPl6jqV6nlHxaVOp-49" value="has &amp;gt;" style="shape=hexagon;perimeter=hexagonPerimeter2;whiteSpace=wrap;html=1;fixedSize=1;" parent="1" vertex="1">
          <mxGeometry x="500" y="764" width="120" height="40" as="geometry" />
        </mxCell>
        <mxCell id="VUTFpPl6jqV6nlHxaVOp-50" value="1 - N" style="text;html=1;align=center;verticalAlign=middle;resizable=0;points=[];autosize=1;strokeColor=none;fillColor=none;" parent="1" vertex="1">
          <mxGeometry x="433" y="509" width="50" height="30" as="geometry" />
        </mxCell>
        <mxCell id="VUTFpPl6jqV6nlHxaVOp-51" value="1 - N" style="text;html=1;align=center;verticalAlign=middle;resizable=0;points=[];autosize=1;strokeColor=none;fillColor=none;" parent="1" vertex="1">
          <mxGeometry x="433" y="649" width="50" height="30" as="geometry" />
        </mxCell>
        <mxCell id="VUTFpPl6jqV6nlHxaVOp-52" value="1 - N" style="text;html=1;align=center;verticalAlign=middle;resizable=0;points=[];autosize=1;strokeColor=none;fillColor=none;" parent="1" vertex="1">
          <mxGeometry x="440" y="759" width="50" height="30" as="geometry" />
        </mxCell>
        <mxCell id="VUTFpPl6jqV6nlHxaVOp-53" value="1-1" style="text;html=1;align=center;verticalAlign=middle;resizable=0;points=[];autosize=1;strokeColor=none;fillColor=none;" parent="1" vertex="1">
          <mxGeometry x="653" y="519" width="40" height="30" as="geometry" />
        </mxCell>
        <mxCell id="VUTFpPl6jqV6nlHxaVOp-54" value="1-1" style="text;html=1;align=center;verticalAlign=middle;resizable=0;points=[];autosize=1;strokeColor=none;fillColor=none;" parent="1" vertex="1">
          <mxGeometry x="650" y="654" width="40" height="30" as="geometry" />
        </mxCell>
        <mxCell id="VUTFpPl6jqV6nlHxaVOp-55" value="1-1" style="text;html=1;align=center;verticalAlign=middle;resizable=0;points=[];autosize=1;strokeColor=none;fillColor=none;" parent="1" vertex="1">
          <mxGeometry x="650" y="764" width="40" height="30" as="geometry" />
        </mxCell>
        <mxCell id="VUTFpPl6jqV6nlHxaVOp-56" value="Note" style="rounded=0;whiteSpace=wrap;html=1;" parent="1" vertex="1">
          <mxGeometry x="101" y="180" width="320" height="30" as="geometry" />
        </mxCell>
        <mxCell id="VUTFpPl6jqV6nlHxaVOp-57" value="&lt;div&gt;&lt;span style=&quot;white-space: pre;&quot;&gt;&#x9;&lt;/span&gt;Note&lt;/div&gt;&lt;div&gt;&lt;span style=&quot;white-space: pre;&quot;&gt;&#x9;&lt;/span&gt;Date&lt;/div&gt;&lt;span style=&quot;white-space: pre;&quot;&gt;&#x9;&lt;/span&gt;IsSolution" style="rounded=0;whiteSpace=wrap;html=1;align=left;" parent="1" vertex="1">
          <mxGeometry x="101" y="210" width="320" height="70" as="geometry" />
        </mxCell>
        <mxCell id="VUTFpPl6jqV6nlHxaVOp-58" value="has ^" style="shape=hexagon;perimeter=hexagonPerimeter2;whiteSpace=wrap;html=1;fixedSize=1;" parent="1" vertex="1">
          <mxGeometry x="190" y="350" width="120" height="40" as="geometry" />
        </mxCell>
        <mxCell id="VUTFpPl6jqV6nlHxaVOp-59" value="" style="endArrow=none;html=1;rounded=0;entryX=0.463;entryY=0.971;entryDx=0;entryDy=0;entryPerimeter=0;exitX=0.5;exitY=0;exitDx=0;exitDy=0;" parent="1" source="VUTFpPl6jqV6nlHxaVOp-58" target="VUTFpPl6jqV6nlHxaVOp-57" edge="1">
          <mxGeometry width="50" height="50" relative="1" as="geometry">
            <mxPoint x="510" y="500" as="sourcePoint" />
            <mxPoint x="560" y="450" as="targetPoint" />
          </mxGeometry>
        </mxCell>
        <mxCell id="VUTFpPl6jqV6nlHxaVOp-60" value="" style="endArrow=none;html=1;rounded=0;entryX=0.5;entryY=1;entryDx=0;entryDy=0;exitX=0.469;exitY=0.033;exitDx=0;exitDy=0;exitPerimeter=0;" parent="1" source="VUTFpPl6jqV6nlHxaVOp-33" target="VUTFpPl6jqV6nlHxaVOp-58" edge="1">
          <mxGeometry width="50" height="50" relative="1" as="geometry">
            <mxPoint x="250" y="460" as="sourcePoint" />
            <mxPoint x="255" y="390" as="targetPoint" />
          </mxGeometry>
        </mxCell>
        <mxCell id="VUTFpPl6jqV6nlHxaVOp-61" value="1-1" style="text;html=1;align=center;verticalAlign=middle;resizable=0;points=[];autosize=1;strokeColor=none;fillColor=none;" parent="1" vertex="1">
          <mxGeometry x="250" y="438" width="40" height="30" as="geometry" />
        </mxCell>
        <mxCell id="VUTFpPl6jqV6nlHxaVOp-62" value="0-N" style="text;html=1;align=center;verticalAlign=middle;resizable=0;points=[];autosize=1;strokeColor=none;fillColor=none;" parent="1" vertex="1">
          <mxGeometry x="250" y="298" width="40" height="30" as="geometry" />
        </mxCell>
        <mxCell id="VUTFpPl6jqV6nlHxaVOp-63" value="Norm" style="rounded=0;whiteSpace=wrap;html=1;" parent="1" vertex="1">
          <mxGeometry x="1089" y="1130" width="177" height="30" as="geometry" />
        </mxCell>
        <mxCell id="VUTFpPl6jqV6nlHxaVOp-64" value="&lt;div&gt;&lt;span style=&quot;white-space: pre;&quot;&gt;&#x9;&lt;/span&gt;ID&lt;/div&gt;&lt;div&gt;&lt;span style=&quot;white-space: pre;&quot;&gt;&#x9;&lt;/span&gt;Nom&lt;br&gt;&lt;/div&gt;&lt;div&gt;&lt;span style=&quot;white-space: pre;&quot;&gt;&#x9;Trigger&lt;/span&gt;&lt;/div&gt;&lt;div&gt;&lt;span style=&quot;white-space: pre;&quot;&gt;&lt;span style=&quot;white-space: pre;&quot;&gt;&#x9;&lt;/span&gt;&lt;span style=&quot;white-space: pre;&quot;&gt;&#x9;Description&lt;/span&gt;&lt;/span&gt;&lt;/div&gt;&lt;div&gt;&lt;span style=&quot;white-space: pre;&quot;&gt;&lt;span style=&quot;white-space: pre;&quot;&gt;&#x9;&lt;/span&gt;&lt;span style=&quot;white-space: pre;&quot;&gt;&#x9;&lt;/span&gt;&lt;/span&gt;limit&lt;/div&gt;" style="rounded=0;whiteSpace=wrap;html=1;align=left;" parent="1" vertex="1">
          <mxGeometry x="1089" y="1160" width="177" height="80" as="geometry" />
        </mxCell>
        <mxCell id="VUTFpPl6jqV6nlHxaVOp-65" value="" style="endArrow=none;html=1;rounded=0;exitX=1;exitY=0.5;exitDx=0;exitDy=0;entryX=0;entryY=0.5;entryDx=0;entryDy=0;" parent="1" source="VUTFpPl6jqV6nlHxaVOp-67" target="VUTFpPl6jqV6nlHxaVOp-64" edge="1">
          <mxGeometry width="50" height="50" relative="1" as="geometry">
            <mxPoint x="969" y="1200" as="sourcePoint" />
            <mxPoint x="1019" y="1150" as="targetPoint" />
          </mxGeometry>
        </mxCell>
        <mxCell id="VUTFpPl6jqV6nlHxaVOp-66" value="" style="endArrow=none;html=1;rounded=0;exitX=1;exitY=0.5;exitDx=0;exitDy=0;entryX=0;entryY=0.5;entryDx=0;entryDy=0;" parent="1" source="VUTFpPl6jqV6nlHxaVOp-7" target="VUTFpPl6jqV6nlHxaVOp-67" edge="1">
          <mxGeometry width="50" height="50" relative="1" as="geometry">
            <mxPoint x="849" y="1200" as="sourcePoint" />
            <mxPoint x="1089" y="1200" as="targetPoint" />
          </mxGeometry>
        </mxCell>
        <mxCell id="VUTFpPl6jqV6nlHxaVOp-67" value="contains &amp;gt;" style="shape=hexagon;perimeter=hexagonPerimeter2;whiteSpace=wrap;html=1;fixedSize=1;" parent="1" vertex="1">
          <mxGeometry x="909" y="1180" width="120" height="40" as="geometry" />
        </mxCell>
        <mxCell id="VUTFpPl6jqV6nlHxaVOp-68" value="1-N" style="text;html=1;align=center;verticalAlign=middle;resizable=0;points=[];autosize=1;strokeColor=none;fillColor=none;" parent="1" vertex="1">
          <mxGeometry x="859" y="1178" width="40" height="30" as="geometry" />
        </mxCell>
        <mxCell id="VUTFpPl6jqV6nlHxaVOp-69" value="1" style="text;html=1;align=center;verticalAlign=middle;resizable=0;points=[];autosize=1;strokeColor=none;fillColor=none;" parent="1" vertex="1">
          <mxGeometry x="1044" y="1178" width="30" height="30" as="geometry" />
        </mxCell>
        <mxCell id="VUTFpPl6jqV6nlHxaVOp-70" value="AlarmStatus" style="rounded=0;whiteSpace=wrap;html=1;" parent="1" vertex="1">
          <mxGeometry x="590" y="985" width="190" height="30" as="geometry" />
        </mxCell>
        <mxCell id="VUTFpPl6jqV6nlHxaVOp-71" value="&lt;div&gt;&lt;span style=&quot;white-space: pre;&quot;&gt;&#x9;&lt;/span&gt;ID&lt;/div&gt;&lt;div&gt;&lt;span style=&quot;white-space: pre;&quot;&gt;&#x9;&lt;/span&gt;ModificationDate&lt;br&gt;&lt;/div&gt;" style="rounded=0;whiteSpace=wrap;html=1;align=left;" parent="1" vertex="1">
          <mxGeometry x="590" y="1015" width="190" height="80" as="geometry" />
        </mxCell>
        <mxCell id="VUTFpPl6jqV6nlHxaVOp-72" value="AlarmStatusType" style="rounded=0;whiteSpace=wrap;html=1;" parent="1" vertex="1">
          <mxGeometry x="1000" y="970" width="190" height="30" as="geometry" />
        </mxCell>
        <mxCell id="VUTFpPl6jqV6nlHxaVOp-77" value="" style="endArrow=none;html=1;rounded=0;" parent="1" edge="1">
          <mxGeometry width="50" height="50" relative="1" as="geometry">
            <mxPoint x="590" y="1050" as="sourcePoint" />
            <mxPoint x="360" y="1050" as="targetPoint" />
          </mxGeometry>
        </mxCell>
        <mxCell id="V04OQYjpOF-covdriaBx-3" value="1-1" style="edgeLabel;html=1;align=center;verticalAlign=middle;resizable=0;points=[];" vertex="1" connectable="0" parent="VUTFpPl6jqV6nlHxaVOp-77">
          <mxGeometry x="0.9298" relative="1" as="geometry">
            <mxPoint x="2" as="offset" />
          </mxGeometry>
        </mxCell>
        <mxCell id="V04OQYjpOF-covdriaBx-4" value="1-N" style="edgeLabel;html=1;align=center;verticalAlign=middle;resizable=0;points=[];" vertex="1" connectable="0" parent="VUTFpPl6jqV6nlHxaVOp-77">
          <mxGeometry x="-0.9351" y="-1" relative="1" as="geometry">
            <mxPoint x="-12" as="offset" />
          </mxGeometry>
        </mxCell>
        <mxCell id="VUTFpPl6jqV6nlHxaVOp-74" value="Has &amp;gt;" style="shape=hexagon;perimeter=hexagonPerimeter2;whiteSpace=wrap;html=1;fixedSize=1;" parent="1" vertex="1">
          <mxGeometry x="430" y="1030" width="120" height="40" as="geometry" />
        </mxCell>
        <mxCell id="VUTFpPl6jqV6nlHxaVOp-78" value="" style="endArrow=none;html=1;rounded=0;exitX=1;exitY=0.25;exitDx=0;exitDy=0;entryX=0.009;entryY=0.423;entryDx=0;entryDy=0;entryPerimeter=0;" parent="1" source="VUTFpPl6jqV6nlHxaVOp-71" edge="1">
          <mxGeometry width="50" height="50" relative="1" as="geometry">
            <mxPoint x="816" y="990" as="sourcePoint" />
            <mxPoint x="1001.7100000000003" y="1033.84" as="targetPoint" />
          </mxGeometry>
        </mxCell>
        <mxCell id="V04OQYjpOF-covdriaBx-1" value="1-N" style="edgeLabel;html=1;align=center;verticalAlign=middle;resizable=0;points=[];" vertex="1" connectable="0" parent="VUTFpPl6jqV6nlHxaVOp-78">
          <mxGeometry x="0.8583" y="1" relative="1" as="geometry">
            <mxPoint as="offset" />
          </mxGeometry>
        </mxCell>
        <mxCell id="V04OQYjpOF-covdriaBx-2" value="1-1" style="edgeLabel;html=1;align=center;verticalAlign=middle;resizable=0;points=[];" vertex="1" connectable="0" parent="VUTFpPl6jqV6nlHxaVOp-78">
          <mxGeometry x="-0.8736" y="2" relative="1" as="geometry">
            <mxPoint as="offset" />
          </mxGeometry>
        </mxCell>
        <mxCell id="VUTFpPl6jqV6nlHxaVOp-75" value="has &amp;gt;" style="shape=hexagon;perimeter=hexagonPerimeter2;whiteSpace=wrap;html=1;fixedSize=1;" parent="1" vertex="1">
          <mxGeometry x="840" y="1015" width="120" height="40" as="geometry" />
        </mxCell>
        <mxCell id="VUTFpPl6jqV6nlHxaVOp-84" style="edgeStyle=orthogonalEdgeStyle;rounded=0;orthogonalLoop=1;jettySize=auto;html=1;entryX=0.618;entryY=0.128;entryDx=0;entryDy=0;entryPerimeter=0;endArrow=none;endFill=0;exitX=1;exitY=0;exitDx=0;exitDy=0;" parent="1" source="VUTFpPl6jqV6nlHxaVOp-36" target="VUTFpPl6jqV6nlHxaVOp-70" edge="1">
          <mxGeometry relative="1" as="geometry">
            <Array as="points">
              <mxPoint x="1090" y="527" />
              <mxPoint x="1090" y="900" />
              <mxPoint x="707" y="900" />
              <mxPoint x="707" y="950" />
            </Array>
          </mxGeometry>
        </mxCell>
        <mxCell id="VUTFpPl6jqV6nlHxaVOp-85" value="0-N" style="edgeLabel;html=1;align=center;verticalAlign=middle;resizable=0;points=[];" parent="VUTFpPl6jqV6nlHxaVOp-84" vertex="1" connectable="0">
          <mxGeometry x="0.9423" y="1" relative="1" as="geometry">
            <mxPoint y="-1" as="offset" />
          </mxGeometry>
        </mxCell>
        <mxCell id="VUTFpPl6jqV6nlHxaVOp-86" value="0-N" style="edgeLabel;html=1;align=center;verticalAlign=middle;resizable=0;points=[];" parent="VUTFpPl6jqV6nlHxaVOp-84" vertex="1" connectable="0">
          <mxGeometry x="-0.9514" relative="1" as="geometry">
            <mxPoint as="offset" />
          </mxGeometry>
        </mxCell>
        <mxCell id="VUTFpPl6jqV6nlHxaVOp-82" value="is modified by &amp;gt;" style="shape=hexagon;perimeter=hexagonPerimeter2;whiteSpace=wrap;html=1;fixedSize=1;" parent="1" vertex="1">
          <mxGeometry x="870" y="879" width="120" height="40" as="geometry" />
        </mxCell>
        <mxCell id="VUTFpPl6jqV6nlHxaVOp-87" value="&lt;div&gt;&lt;span style=&quot;white-space: pre;&quot;&gt;&#x9;&lt;/span&gt;ID&lt;/div&gt;&lt;div&gt;&lt;span style=&quot;white-space: pre;&quot;&gt;&#x9;&lt;/span&gt;Name&lt;/div&gt;&lt;div&gt;&lt;span style=&quot;white-space: pre;&quot;&gt;&#x9;&lt;/span&gt;Description&lt;br&gt;&lt;/div&gt;" style="rounded=0;whiteSpace=wrap;html=1;align=left;" parent="1" vertex="1">
          <mxGeometry x="1000" y="1000" width="190" height="80" as="geometry" />
        </mxCell>
      </root>
    </mxGraphModel>
  </diagram>
</mxfile>
